<svg xmlns="http://www.w3.org/2000/svg" fill="none" viewBox="0 0 340 340"><g filter="url(#a)"><circle cx="170" cy="170" r="70" fill="url(#b)" fill-opacity=".8"/></g><g filter="url(#c)"><circle cx="170" cy="170" r="70" fill="url(#d)" fill-opacity=".6"/></g><circle cx="170" cy="170" r="70" fill="url(#e)"/><g filter="url(#f)"><path fill="#FFC1A1" d="M170 113.019c25.975-12.578 62.609 22.969 56.048 43.477l-9.492-12.654a78.007 78.007 0 0 0-33.639-25.7L170 113.019Z"/></g><g filter="url(#g)" opacity=".3" style="mix-blend-mode:multiply"><path fill="#45368D" d="M188.047 221.953c-40.196 15.859-83.946-27.617-73.828-65.625l17.695 26.542a77.996 77.996 0 0 0 31.062 27.012l25.071 12.071Z"/></g><defs><filter id="a" width="300" height="300" x="20" y="20" color-interpolation-filters="sRGB" filterUnits="userSpaceOnUse"><feFlood flood-opacity="0" result="BackgroundImageFix"/><feBlend in="SourceGraphic" in2="BackgroundImageFix" result="shape"/><feGaussianBlur result="effect1_foregroundBlur_33_1179" stdDeviation="40"/></filter><filter id="c" width="340" height="340" x="0" y="0" color-interpolation-filters="sRGB" filterUnits="userSpaceOnUse"><feFlood flood-opacity="0" result="BackgroundImageFix"/><feBlend in="SourceGraphic" in2="BackgroundImageFix" result="shape"/><feGaussianBlur result="effect1_foregroundBlur_33_1179" stdDeviation="50"/></filter><filter id="f" width="116.821" height="106.105" x="140" y="80.391" color-interpolation-filters="sRGB" filterUnits="userSpaceOnUse"><feFlood flood-opacity="0" result="BackgroundImageFix"/><feBlend in="SourceGraphic" in2="BackgroundImageFix" result="shape"/><feGaussianBlur result="effect1_foregroundBlur_33_1179" stdDeviation="15"/></filter><filter id="g" width="175.305" height="168.979" x="62.742" y="106.328" color-interpolation-filters="sRGB" filterUnits="userSpaceOnUse"><feFlood flood-opacity="0" result="BackgroundImageFix"/><feBlend in="SourceGraphic" in2="BackgroundImageFix" result="shape"/><feGaussianBlur result="effect1_foregroundBlur_33_1179" stdDeviation="25"/></filter><linearGradient id="b" x1="291.133" x2="152.227" y1="123.789" y2="267.07" gradientUnits="userSpaceOnUse"><stop offset=".119" stop-color="#FFB590"/><stop offset=".42" stop-color="#FF7F3E"/><stop offset="1" stop-color="#45368D"/></linearGradient><linearGradient id="d" x1="291.133" x2="152.227" y1="123.789" y2="267.07" gradientUnits="userSpaceOnUse"><stop offset=".119" stop-color="#FFB590"/><stop offset=".42" stop-color="#FF7F3E"/><stop offset="1" stop-color="#45368D"/></linearGradient><linearGradient id="e" x1="291.133" x2="152.227" y1="123.789" y2="267.07" gradientUnits="userSpaceOnUse"><stop offset=".119" stop-color="#FFB590"/><stop offset=".42" stop-color="#FF7F3E"/><stop offset="1" stop-color="#45368D"/></linearGradient></defs></svg>